<svg width="227" height="35" viewBox="0 0 227 35" fill="none" xmlns="http://www.w3.org/2000/svg">
<path d="M22.2856 17.2378H23.1663V21.9423C22.6151 22.469 21.9441 22.87 21.1532 23.1453C20.3744 23.4206 19.5476 23.5583 18.6728 23.5583C17.4267 23.5583 16.3003 23.283 15.2938 22.7323C14.2993 22.1817 13.5144 21.4215 12.9393 20.4519C12.3761 19.4823 12.0945 18.393 12.0945 17.184C12.0945 15.975 12.3761 14.8856 12.9393 13.916C13.5144 12.9464 14.2993 12.1863 15.2938 11.6356C16.3003 11.085 17.4327 10.8097 18.6908 10.8097C19.6135 10.8097 20.4582 10.9593 21.2251 11.2586C22.004 11.5459 22.669 11.9708 23.2202 12.5334L22.645 13.1439C22.1178 12.6172 21.5247 12.2401 20.8656 12.0127C20.2186 11.7733 19.4996 11.6536 18.7088 11.6536C17.6304 11.6536 16.6538 11.893 15.7791 12.3718C14.9164 12.8506 14.2394 13.515 13.7481 14.3649C13.2568 15.2029 13.0112 16.1425 13.0112 17.184C13.0112 18.2134 13.2568 19.1531 13.7481 20.003C14.2513 20.841 14.9343 21.5053 15.7971 21.9961C16.6598 22.475 17.6304 22.7144 18.7088 22.7144C20.1467 22.7144 21.3389 22.3313 22.2856 21.5652V17.2378Z" fill="#B3E5DA"/>
<path d="M35.8815 22.6425V23.4685H27.2002V10.8994H35.6119V11.7254H28.1169V16.6812H34.821V17.4892H28.1169V22.6425H35.8815Z" fill="#B3E5DA"/>
<path d="M41.6321 11.7254H37.1027V10.8994H47.0781V11.7254H42.5487V23.4685H41.6321V11.7254Z" fill="#B3E5DA"/>
<path d="M61.7142 20.1108H54.7045L53.1947 23.4685H51.8108L57.5623 10.8994H58.8744L64.626 23.4685H63.224L61.7142 20.1108ZM61.2289 19.0334L58.2094 12.282L55.1898 19.0334H61.2289Z" fill="#B3E5DA"/>
<path d="M77.2218 10.8994V23.4685H76.1254L68.0373 13.2696V23.4685H66.7073V10.8994H67.8036L75.9098 21.0983V10.8994H77.2218Z" fill="#B3E5DA"/>
<path d="M85.8614 10.8994H88.7731V23.4685H85.8614V10.8994Z" fill="#B3E5DA"/>
<path d="M103.298 10.8994V23.4685H100.908L94.6348 15.8373V23.4685H91.759V10.8994H94.1675L100.422 18.5307V10.8994H103.298Z" fill="#B3E5DA"/>
<path d="M108.881 13.2696H104.855V10.8994H115.819V13.2696H111.793V23.4685H108.881V13.2696Z" fill="#B3E5DA"/>
<path d="M127.127 21.1343V23.4685H117.385V10.8994H126.894V13.2337H120.279V15.963H126.121V18.2254H120.279V21.1343H127.127Z" fill="#B3E5DA"/>
<path d="M137.46 23.4685L135.034 19.9671H132.356V23.4685H129.444V10.8994H134.89C136.004 10.8994 136.969 11.085 137.784 11.4561C138.611 11.8272 139.246 12.3539 139.689 13.0362C140.132 13.7185 140.354 14.5265 140.354 15.4602C140.354 16.3939 140.126 17.2019 139.671 17.8843C139.228 18.5546 138.593 19.0693 137.766 19.4285L140.588 23.4685H137.46ZM137.406 15.4602C137.406 14.754 137.179 14.2153 136.723 13.8442C136.268 13.4611 135.603 13.2696 134.728 13.2696H132.356V17.6508H134.728C135.603 17.6508 136.268 17.4593 136.723 17.0762C137.179 16.6932 137.406 16.1545 137.406 15.4602Z" fill="#B3E5DA"/>
<path d="M154.757 10.8994L149.311 23.4685H146.435L141.007 10.8994H144.153L147.981 19.8773L151.863 10.8994H154.757Z" fill="#B3E5DA"/>
<path d="M165.549 21.1343V23.4685H155.808V10.8994H165.316V13.2337H158.701V15.963H164.543V18.2254H158.701V21.1343H165.549Z" fill="#B3E5DA"/>
<path d="M179.405 10.8994V23.4685H177.015L170.742 15.8373V23.4685H167.866V10.8994H170.275L176.529 18.5307V10.8994H179.405Z" fill="#B3E5DA"/>
<path d="M184.988 13.2696H180.962V10.8994H191.926V13.2696H187.9V23.4685H184.988V13.2696Z" fill="#B3E5DA"/>
<path d="M193.493 10.8994H196.404V23.4685H193.493V10.8994Z" fill="#B3E5DA"/>
<path d="M205.483 23.684C204.177 23.684 202.997 23.4027 201.942 22.8401C200.9 22.2774 200.079 21.5053 199.48 20.5238C198.893 19.5302 198.599 18.4169 198.599 17.184C198.599 15.951 198.893 14.8437 199.48 13.8622C200.079 12.8686 200.9 12.0905 201.942 11.5279C202.997 10.9653 204.177 10.684 205.483 10.684C206.789 10.684 207.964 10.9653 209.006 11.5279C210.049 12.0905 210.869 12.8686 211.468 13.8622C212.068 14.8437 212.367 15.951 212.367 17.184C212.367 18.4169 212.068 19.5302 211.468 20.5238C210.869 21.5053 210.049 22.2774 209.006 22.8401C207.964 23.4027 206.789 23.684 205.483 23.684ZM205.483 21.2061C206.226 21.2061 206.897 21.0385 207.496 20.7033C208.095 20.3562 208.563 19.8773 208.898 19.2668C209.246 18.6564 209.419 17.9621 209.419 17.184C209.419 16.4059 209.246 15.7116 208.898 15.1011C208.563 14.4906 208.095 14.0178 207.496 13.6826C206.897 13.3355 206.226 13.1619 205.483 13.1619C204.74 13.1619 204.069 13.3355 203.47 13.6826C202.871 14.0178 202.398 14.4906 202.05 15.1011C201.715 15.7116 201.547 16.4059 201.547 17.184C201.547 17.9621 201.715 18.6564 202.05 19.2668C202.398 19.8773 202.871 20.3562 203.47 20.7033C204.069 21.0385 204.74 21.2061 205.483 21.2061Z" fill="#B3E5DA"/>
<path d="M226.094 10.8994V23.4685H223.704L217.431 15.8373V23.4685H214.555V10.8994H216.964L223.219 18.5307V10.8994H226.094Z" fill="#B3E5DA"/>
<path fill-rule="evenodd" clip-rule="evenodd" d="M27.2002 35L17.5 35C7.83502 35 -4.2247e-07 27.165 0 17.5C4.2247e-07 7.83502 7.83501 1.46044e-08 17.5 1.98422e-08L27.2002 0V2H17.5C8.93959 2 2 8.93959 2 17.5C2 26.0604 8.93959 33 17.5 33L27.2002 33V35Z" fill="#B3E5DA"/>
</svg>
